<svg xmlns="http://www.w3.org/2000/svg" viewBox="0 0 405 280">
  <g id="Button1" transform="translate(-543 -820)">
    <rect id="Rectangle_5951" data-name="Rectangle 5951" width="405" height="280" rx="20" transform="translate(543 820)" fill="#fff"/>
    <path id="Path_5572" data-name="Path 5572" d="M7.119-2.66A3.058,3.058,0,0,1,6.155-.6,3.188,3.188,0,0,1,3.979.117,3.009,3.009,0,0,1,2.3-.357,3.1,3.1,0,0,1,1.172-1.7a4.79,4.79,0,0,1-.4-1.989V-4.8a4.834,4.834,0,0,1,.4-2.016A3.064,3.064,0,0,1,2.312-8.171a3.123,3.123,0,0,1,1.72-.478A3.047,3.047,0,0,1,6.2-7.907a3.1,3.1,0,0,1,.923,2.048H6.393A2.171,2.171,0,0,0,4.031-8.033a2.238,2.238,0,0,0-1.849.867,3.759,3.759,0,0,0-.688,2.4v1.043a3.786,3.786,0,0,0,.671,2.355,2.162,2.162,0,0,0,1.813.879,2.4,2.4,0,0,0,1.705-.542A2.6,2.6,0,0,0,6.393-2.66Zm1.2-.6A3.731,3.731,0,0,1,8.675-4.91a2.7,2.7,0,0,1,1-1.14,2.7,2.7,0,0,1,1.468-.407,2.608,2.608,0,0,1,2.051.888,3.421,3.421,0,0,1,.785,2.353v.146a3.763,3.763,0,0,1-.354,1.655,2.647,2.647,0,0,1-1,1.134,2.739,2.739,0,0,1-1.471.4A2.61,2.61,0,0,1,9.108-.771,3.413,3.413,0,0,1,8.32-3.123Zm.7.193A2.877,2.877,0,0,0,9.612-1.2a1.889,1.889,0,0,0,1.544.729A1.883,1.883,0,0,0,12.694-1.2a2.971,2.971,0,0,0,.589-1.925v-.135a3.225,3.225,0,0,0-.27-1.33,2.166,2.166,0,0,0-.756-.935,1.931,1.931,0,0,0-1.113-.331,1.873,1.873,0,0,0-1.529.735A2.976,2.976,0,0,0,9.023-3.2ZM16.1-6.34l.023,1.084a2.517,2.517,0,0,1,.891-.894,2.315,2.315,0,0,1,1.178-.308,1.9,1.9,0,0,1,1.518.574,2.59,2.59,0,0,1,.5,1.723V0h-.7V-4.166a1.937,1.937,0,0,0-.36-1.266,1.412,1.412,0,0,0-1.134-.416,1.774,1.774,0,0,0-1.151.407,2.386,2.386,0,0,0-.741,1.1V0h-.7V-6.34Zm7.014-1.623V-6.34h1.313v.574H23.109v4.225a1.321,1.321,0,0,0,.19.785.738.738,0,0,0,.636.258A4.362,4.362,0,0,0,24.5-.557l.029.574a2.272,2.272,0,0,1-.75.1A1.251,1.251,0,0,1,22.734-.3a1.972,1.972,0,0,1-.328-1.233v-4.23H21.24V-6.34h1.166V-7.963ZM29.877,0a3.316,3.316,0,0,1-.135-.885,2.445,2.445,0,0,1-.94.741,2.88,2.88,0,0,1-1.21.261,2.125,2.125,0,0,1-1.479-.51,1.661,1.661,0,0,1-.565-1.289,1.7,1.7,0,0,1,.771-1.465,3.7,3.7,0,0,1,2.147-.539h1.271v-.721a1.389,1.389,0,0,0-.419-1.069,1.732,1.732,0,0,0-1.222-.39,1.912,1.912,0,0,0-1.213.375,1.114,1.114,0,0,0-.48.9l-.7-.006a1.63,1.63,0,0,1,.7-1.31,2.707,2.707,0,0,1,1.729-.554,2.47,2.47,0,0,1,1.673.53,1.9,1.9,0,0,1,.63,1.479v3A3.721,3.721,0,0,0,30.627-.07V0Zm-2.2-.5a2.354,2.354,0,0,0,1.257-.34,2,2,0,0,0,.806-.908V-3.146H28.482a3.142,3.142,0,0,0-1.641.384A1.152,1.152,0,0,0,26.25-1.74a1.133,1.133,0,0,0,.4.885A1.49,1.49,0,0,0,27.674-.5Zm5.414.5h-.7V-6.34h.7Zm-.826-8.174a.475.475,0,0,1,.129-.337.458.458,0,0,1,.352-.138.468.468,0,0,1,.354.138.469.469,0,0,1,.132.337.459.459,0,0,1-.132.334.473.473,0,0,1-.354.135.463.463,0,0,1-.352-.135A.464.464,0,0,1,32.262-8.174Zm3.4,1.834.023,1.084a2.517,2.517,0,0,1,.891-.894,2.315,2.315,0,0,1,1.178-.308,1.9,1.9,0,0,1,1.518.574,2.59,2.59,0,0,1,.5,1.723V0h-.7V-4.166a1.937,1.937,0,0,0-.36-1.266,1.412,1.412,0,0,0-1.134-.416,1.774,1.774,0,0,0-1.151.407,2.386,2.386,0,0,0-.741,1.1V0h-.7V-6.34ZM44.039.117a2.752,2.752,0,0,1-1.462-.4,2.715,2.715,0,0,1-1.017-1.11,3.462,3.462,0,0,1-.363-1.6V-3.24a3.731,3.731,0,0,1,.354-1.646,2.82,2.82,0,0,1,.987-1.151,2.436,2.436,0,0,1,1.371-.419,2.289,2.289,0,0,1,1.831.788,3.2,3.2,0,0,1,.677,2.153v.393H41.895v.135a2.655,2.655,0,0,0,.618,1.8,1.967,1.967,0,0,0,1.556.718,2.285,2.285,0,0,0,.993-.205,2.2,2.2,0,0,0,.782-.656L46.283-1A2.558,2.558,0,0,1,44.039.117ZM43.91-5.859a1.753,1.753,0,0,0-1.333.58,2.68,2.68,0,0,0-.659,1.559h3.8V-3.8A2.327,2.327,0,0,0,45.2-5.285,1.616,1.616,0,0,0,43.91-5.859ZM47.5-3.229a3.821,3.821,0,0,1,.659-2.353,2.122,2.122,0,0,1,1.79-.876,2.2,2.2,0,0,1,1.957,1.014V-9h.7V0h-.656L51.92-.844a2.264,2.264,0,0,1-1.98.961,2.114,2.114,0,0,1-1.767-.882A3.841,3.841,0,0,1,47.5-3.146Zm.709.123A3.306,3.306,0,0,0,48.7-1.192a1.573,1.573,0,0,0,1.371.7,1.887,1.887,0,0,0,1.84-1.143V-4.611A1.873,1.873,0,0,0,50.08-5.848a1.592,1.592,0,0,0-1.377.694A3.533,3.533,0,0,0,48.211-3.105Zm11.936-1.23h2.6v.656h-2.6V-.855h-.709V-3.68H56.895v-.656h2.543v-2.73h.709ZM67.846,0h-.7V-6.34h.7ZM67.02-8.174a.475.475,0,0,1,.129-.337.458.458,0,0,1,.352-.138.468.468,0,0,1,.354.138.469.469,0,0,1,.132.337.459.459,0,0,1-.132.334.473.473,0,0,1-.354.135.463.463,0,0,1-.352-.135A.464.464,0,0,1,67.02-8.174Zm5.074,7.7a1.851,1.851,0,0,0,1.228-.413,1.454,1.454,0,0,0,.536-1.069h.674A1.985,1.985,0,0,1,74.168-.9a2.276,2.276,0,0,1-.888.747,2.675,2.675,0,0,1-1.187.27A2.449,2.449,0,0,1,70.116-.75a3.506,3.506,0,0,1-.729-2.332v-.211a3.963,3.963,0,0,1,.328-1.658,2.529,2.529,0,0,1,.94-1.113,2.6,2.6,0,0,1,1.433-.393,2.445,2.445,0,0,1,1.72.621A2.265,2.265,0,0,1,74.531-4.2h-.674a1.724,1.724,0,0,0-.536-1.2,1.736,1.736,0,0,0-1.233-.457,1.748,1.748,0,0,0-1.474.686,3.1,3.1,0,0,0-.524,1.922v.205a3.033,3.033,0,0,0,.524,1.893A1.76,1.76,0,0,0,72.094-.475Zm3.451-2.789A3.731,3.731,0,0,1,75.9-4.91a2.7,2.7,0,0,1,1-1.14,2.7,2.7,0,0,1,1.468-.407,2.608,2.608,0,0,1,2.051.888,3.421,3.421,0,0,1,.785,2.353v.146a3.763,3.763,0,0,1-.354,1.655,2.647,2.647,0,0,1-1,1.134,2.739,2.739,0,0,1-1.471.4,2.61,2.61,0,0,1-2.048-.888,3.413,3.413,0,0,1-.788-2.353Zm.7.193A2.877,2.877,0,0,0,76.837-1.2a1.889,1.889,0,0,0,1.544.729A1.883,1.883,0,0,0,79.919-1.2a2.971,2.971,0,0,0,.589-1.925v-.135a3.225,3.225,0,0,0-.27-1.33,2.166,2.166,0,0,0-.756-.935,1.931,1.931,0,0,0-1.113-.331,1.873,1.873,0,0,0-1.529.735A2.976,2.976,0,0,0,76.248-3.2ZM83.32-6.34l.023,1.084a2.517,2.517,0,0,1,.891-.894,2.315,2.315,0,0,1,1.178-.308,1.9,1.9,0,0,1,1.518.574,2.59,2.59,0,0,1,.5,1.723V0h-.7V-4.166a1.937,1.937,0,0,0-.36-1.266,1.412,1.412,0,0,0-1.134-.416,1.774,1.774,0,0,0-1.151.407,2.386,2.386,0,0,0-.741,1.1V0h-.7V-6.34Z" transform="translate(578 876)" fill="#1a1a1a"/>
    <path id="Path_5573" data-name="Path 5573" d="M-56.408-4l.533-.533q.17-.17.3-.035L-55-4q.152.152-.018.322l-.533.533a.194.194,0,0,1-.311.006l-.574-.574Q-56.566-3.844-56.408-4ZM-52.16-.3a2.808,2.808,0,0,1-.85,2.15,2.392,2.392,0,0,1-.46.308,3.185,3.185,0,0,1-.562.223,4.127,4.127,0,0,1-.665.135,6.3,6.3,0,0,1-.768.044h-.322a3.613,3.613,0,0,1-2.537-.779,3.094,3.094,0,0,1-.838-2.367V-2.5h.861V-.6A2.16,2.16,0,0,0-57.662,1.1a2.739,2.739,0,0,0,1.887.574h.3a3.083,3.083,0,0,0,1.887-.486A1.715,1.715,0,0,0-52.945-.27v-3.34h.855ZM-46.9-2.08V-.967h.99a.3.3,0,0,1,.035.135,1.867,1.867,0,0,1,.018.264V-.5a1.6,1.6,0,0,1-.029.357q-.018.059-.029.059H-46.9v.1q-.047,2.6-3.246,2.6h-.346V1.734h.311q2.449.006,2.455-1.723v-.1h-1.037a2.017,2.017,0,0,1-1.471-.475A1.933,1.933,0,0,1-50.713-2,2.357,2.357,0,0,1-50.221-3.6a1.865,1.865,0,0,1,1.453-.562,1.822,1.822,0,0,1,1.33.48,1.532,1.532,0,0,1,.393.65A3.115,3.115,0,0,1-46.9-2.08Zm-3.006.07a1,1,0,0,0,.293.776,1.221,1.221,0,0,0,.85.267h1.049v-.1l-.006-.979A1.485,1.485,0,0,0-47.994-3a.953.953,0,0,0-.8-.325,1.043,1.043,0,0,0-.844.34A1.506,1.506,0,0,0-49.91-2.01ZM-41.1-1.9a2.2,2.2,0,0,0,1.418.938h.141a.885.885,0,0,1,.053.4V-.5a1.856,1.856,0,0,1-.018.281.4.4,0,0,1-.035.135h-.082a2.139,2.139,0,0,1-.548-.07,2.172,2.172,0,0,1-.516-.211,2.436,2.436,0,0,1-.478-.357,3.763,3.763,0,0,1-.439-.5l-.012-.018-.1-.141-.053.164-.012.023q-.369,1.113-2.268,1.113h-1.91a.182.182,0,0,1-.167-.094A.673.673,0,0,1-46.184-.5V-.568a.58.58,0,0,1,.064-.316.176.176,0,0,1,.158-.082h1.922q1.547,0,1.553-.873a2.247,2.247,0,0,0-.68-1.131l-1.875-2.139a1.054,1.054,0,0,1-.252-.738.827.827,0,0,1,.621-.844l3.545-1.166v.873L-44.4-5.918l-.018.006-.129.041.088.1.012.012Zm3.615,3.721.533-.533q.158-.158.281-.035l.574.574q.141.141-.018.3l-.533.533a.18.18,0,0,1-.287.006l-.574-.574a.156.156,0,0,1-.053-.126A.253.253,0,0,1-37.488,1.816Zm-2.033,0,.533-.533q.158-.158.281-.035l.574.574q.141.141-.018.3l-.533.533a.18.18,0,0,1-.287.006l-.574-.574Q-39.662,1.963-39.521,1.816Zm-.076-1.9a.186.186,0,0,1-.164-.088A.681.681,0,0,1-39.82-.5V-.568a1.063,1.063,0,0,1,.015-.19.3.3,0,0,1,.044-.12A.178.178,0,0,1-39.6-.967h1.365q1.271,0,1.271-1.219V-3.82h.844v1.635a1.859,1.859,0,0,1-2.109,2.1Zm5.508-6.5h.8V-.1h-.8Zm-.246-2h2.15l.006.75h-2.1a1.134,1.134,0,0,0-.967.428l-.023.023-.457-.527.012-.018a1.371,1.371,0,0,1,.56-.492A1.878,1.878,0,0,1-34.336-8.59Zm9.17,4.1h2.379v.85h-2.379v2.7h-.914v-2.7h-2.379v-.85h2.379v-2.49h.914ZM-13.67-.5a.861.861,0,0,1-.059.416h-.082A1.587,1.587,0,0,1-15.152-.65v.264a2.965,2.965,0,0,1-.791,2.262,3.389,3.389,0,0,1-2.42.744h-.328V1.746h.3Q-16,1.74-16-.4V-3.457l.838-.006v1.219a1.165,1.165,0,0,0,.48,1.061,1.568,1.568,0,0,0,.867.217h.088a.861.861,0,0,1,.053.4ZM-11.7-8.443a.716.716,0,0,1-.5-.691.762.762,0,0,1,.316-.639.726.726,0,0,1,.41-.088.72.72,0,0,1,.521.176.825.825,0,0,1,.252.615,1.222,1.222,0,0,1-.07.363l-.018.07-.006.018h.012l.082.006q.082.006.176.006.053,0,.117.006v.4l-.129,0-.129-.009q-.146-.006-.287-.023l-.035-.006H-11L-11-8.232l-.018.029a1.772,1.772,0,0,1-.152.188,1.465,1.465,0,0,1-.182.164q-.1.076-.211.146a3.519,3.519,0,0,1-1.629.6v-.4a2.47,2.47,0,0,0,1.436-.562,2.114,2.114,0,0,0,.217-.2l.076-.076.012-.018h-.018A1.266,1.266,0,0,1-11.7-8.443Zm.486-.252.053-.123a.607.607,0,0,0,.053-.252.482.482,0,0,0-.029-.179.287.287,0,0,0-.088-.12.35.35,0,0,0-.229-.088.349.349,0,0,0-.217.059.318.318,0,0,0-.117.264.368.368,0,0,0,.27.346q.105.041.24.082l.053.018h.006Zm-.416,10.541q-.129-.135-.023-.246l.574-.574a.17.17,0,0,1,.264.006l.533.533q.146.146.018.275l-.574.574a.14.14,0,0,1-.12.05.264.264,0,0,1-.138-.085Zm-2.033,0q-.129-.135-.023-.246l.574-.574a.174.174,0,0,1,.129-.062.221.221,0,0,1,.135.067l.533.533q.146.146.018.275l-.574.574q-.111.111-.258-.035Zm1.014,1.676q-.129-.135-.018-.246L-12.1,2.7a.17.17,0,0,1,.264.006l.533.533q.146.146.018.275l-.574.574a.153.153,0,0,1-.076.044.132.132,0,0,1-.085-.012.417.417,0,0,1-.1-.067ZM-13.77-.088a.186.186,0,0,1-.164-.088A.681.681,0,0,1-13.992-.5V-.568a1.063,1.063,0,0,1,.015-.19.3.3,0,0,1,.044-.12.178.178,0,0,1,.164-.088H-12.4q1.271,0,1.271-1.219V-3.82h.844v1.635A1.859,1.859,0,0,1-12.4-.088ZM-5.045-2.08V-.967h.99a.3.3,0,0,1,.035.135A1.867,1.867,0,0,1-4-.568V-.5a1.6,1.6,0,0,1-.029.357q-.018.059-.029.059h-.979v.1q-.047,2.6-3.246,2.6h-.346V1.734h.311Q-5.871,1.74-5.865.012v-.1H-6.9A2.017,2.017,0,0,1-8.373-.562,1.933,1.933,0,0,1-8.854-2,2.357,2.357,0,0,1-8.361-3.6,1.865,1.865,0,0,1-6.908-4.16a1.822,1.822,0,0,1,1.33.48,1.532,1.532,0,0,1,.393.65A3.115,3.115,0,0,1-5.045-2.08Zm-3.006.07a1,1,0,0,0,.293.776,1.221,1.221,0,0,0,.85.267h1.049v-.1l-.006-.979A1.485,1.485,0,0,0-6.135-3a.953.953,0,0,0-.8-.325,1.043,1.043,0,0,0-.844.34A1.506,1.506,0,0,0-8.051-2.01ZM-4.1-.088a.186.186,0,0,1-.164-.088A.681.681,0,0,1-4.324-.5V-.568a1.063,1.063,0,0,1,.015-.19.3.3,0,0,1,.044-.12A.178.178,0,0,1-4.1-.967h1.365q1.271,0,1.271-1.219V-3.82h.844v1.635A1.859,1.859,0,0,1-2.73-.088Zm2.443-6.123.533-.533q.158-.158.281-.035l.574.574q.141.141-.018.3l-.533.533a.18.18,0,0,1-.287.006l-.574-.574a.156.156,0,0,1-.053-.126A.253.253,0,0,1-1.658-6.211Zm-2.033,0,.533-.533Q-3-6.9-2.877-6.779l.574.574q.141.141-.018.3l-.533.533a.18.18,0,0,1-.287.006l-.574-.574Q-3.832-6.064-3.691-6.211Z" transform="translate(912 874)" fill="#1a1a1a"/>
    <rect id="bg" width="335" height="48" rx="15" transform="translate(578 891)" fill="#007bff"/>
    <path id="Path_5568" data-name="Path 5568" d="M9.571,0h-.4Q6.917,0,6.258-1.521a15.313,15.313,0,0,1-1.837.132,5.174,5.174,0,0,1-2.874-.659,2.35,2.35,0,0,1-1.028-2.1,2.976,2.976,0,0,1,.519-1.74A3.753,3.753,0,0,1,2.514-7.128a8.855,8.855,0,0,1,2.373-.738l-.053-.255-.062-.308.3-.053,1.485-.281.308-.062.053.308.861,4.922a1.826,1.826,0,0,0,.492,1.063,1.385,1.385,0,0,0,.993.334h.308a.412.412,0,0,1,.29.114.554.554,0,0,1,.167.264,1.168,1.168,0,0,1,.062.281q.009.123.009.36v.316q0,.053-.013.229a.841.841,0,0,1-.044.246q-.031.07-.088.185A.324.324,0,0,1,9.8-.044.548.548,0,0,1,9.571,0ZM5.7-3.639,5.317-5.73a8.262,8.262,0,0,0-1.274.272,3.446,3.446,0,0,0-.844.352,1.581,1.581,0,0,0-.457.4.754.754,0,0,0-.141.439q0,.7,1.705.721.246,0,.488-.013t.47-.031Q5.493-3.6,5.7-3.639ZM18.791,0h-.246a2.579,2.579,0,0,1-1.863-.571A3.241,3.241,0,0,1,14.4.123a3.461,3.461,0,0,1-2.382-.694,1.5,1.5,0,0,1-.3.215,2.749,2.749,0,0,1-.352.163,2.3,2.3,0,0,1-.4.11q-.211.04-.439.062T10.037,0H9.492a.638.638,0,0,1-.584-.308,1.419,1.419,0,0,1-.189-.756v-.1a1.339,1.339,0,0,1,.167-.721A.672.672,0,0,1,9.492-2.2h.527q.993,0,.993-.4a7.986,7.986,0,0,1,.352-2.821,2.885,2.885,0,0,1,1.143-1.411A3.408,3.408,0,0,1,14.353-7.3a3.4,3.4,0,0,1,1.92.505,2.675,2.675,0,0,1,1.068,1.49A12.01,12.01,0,0,1,17.6-2.654a.4.4,0,0,0,.193.338,1.427,1.427,0,0,0,.7.119h.3a.461.461,0,0,1,.3.092.461.461,0,0,1,.154.268,2.09,2.09,0,0,1,.048.294q.009.119.009.321v.413q0,.062-.009.18a1.287,1.287,0,0,1-.026.193,1.029,1.029,0,0,1-.057.167.458.458,0,0,1-.092.145.421.421,0,0,1-.136.088A.483.483,0,0,1,18.791,0Zm-4.4-5.124a1.117,1.117,0,0,0-.918.36,1.905,1.905,0,0,0-.286,1.213,3.241,3.241,0,0,0,.022.391,2.3,2.3,0,0,0,.062.325,1.408,1.408,0,0,0,.1.259.905.905,0,0,0,.136.2,1.069,1.069,0,0,0,.158.145.956.956,0,0,0,.2.114,1.081,1.081,0,0,0,.255.07,2,2,0,0,0,.308.022.968.968,0,0,0,.822-.352,2.06,2.06,0,0,0,.268-1.213,4.172,4.172,0,0,0-.022-.448,1.964,1.964,0,0,0-.07-.36,1.27,1.27,0,0,0-.119-.277,1.04,1.04,0,0,0-.158-.207.679.679,0,0,0-.207-.141,1.189,1.189,0,0,0-.25-.079A1.532,1.532,0,0,0,14.388-5.124ZM18.7,0a.638.638,0,0,1-.584-.308,1.419,1.419,0,0,1-.189-.756v-.1a1.339,1.339,0,0,1,.167-.721A.685.685,0,0,1,18.7-2.2h2.883a3.317,3.317,0,0,0,1.455-.229.724.724,0,0,0,.435-.642.5.5,0,0,0-.053-.18q-.053-.119-.154-.294a4,4,0,0,0-.286-.417Q22.8-4.2,22.57-4.474L19.749-7.682a2.025,2.025,0,0,1-.483-1.406,1.883,1.883,0,0,1,.083-.571,1.578,1.578,0,0,1,.242-.475,1.659,1.659,0,0,1,.387-.369,2.036,2.036,0,0,1,.519-.255l5.493-1.811.4-.132v2.232l-.22.07L21.6-8.9l2.408,2.786a5.153,5.153,0,0,1,1.538,3.1A2.58,2.58,0,0,1,24.535-.76,4.945,4.945,0,0,1,21.568,0ZM30.92,0H27.413V-2.2h3.516q2,0,2-.809a.9.9,0,0,0-.083-.338,3.275,3.275,0,0,0-.272-.488,5.18,5.18,0,0,0-.47-.606L29.7-7.225l-.176-.2.185-.2,1.063-1.187L31-9.079l.229.272,2.628,3.05A4.4,4.4,0,0,1,35.095-2.9,2.442,2.442,0,0,1,34.009-.725,5.543,5.543,0,0,1,30.92,0Zm14.7-6.513.8-.8q.413-.413.773-.044l.861.853a.507.507,0,0,1-.026.8l-.8.8a.5.5,0,0,1-.782.009L45.6-5.757A.483.483,0,0,1,45.624-6.513Zm6.97,5.757A5.269,5.269,0,0,1,51.93,1.85a3.877,3.877,0,0,1-1.819,1.586,7.184,7.184,0,0,1-2.914.527h-.483q-3.841,0-5.019-2.6A6.225,6.225,0,0,1,41.212-1.2V-4.5h2.171v3.3a2.856,2.856,0,0,0,.809,2.237,3.731,3.731,0,0,0,2.54.725h.448a4.247,4.247,0,0,0,2.553-.611,2.2,2.2,0,0,0,.8-1.868v-5.44h2.171l-.009.316Zm2.1-10.969h1.767V-.009H54.387V-11.725Zm9.905,8.3V-2.2h1.055a.461.461,0,0,1,.3.092.461.461,0,0,1,.154.268,2.09,2.09,0,0,1,.048.294q.009.119.009.321v.158a2.641,2.641,0,0,1-.062.65Q65.979,0,65.654,0H64.6a3.868,3.868,0,0,1-1.481,3.032A6.213,6.213,0,0,1,59.3,4.043h-.958V1.854h.905A4.588,4.588,0,0,0,61.6,1.393,1.759,1.759,0,0,0,62.473,0h-1.1a3.441,3.441,0,0,1-2.509-.848,3.272,3.272,0,0,1-.857-2.465,3.933,3.933,0,0,1,.853-2.681,3.18,3.18,0,0,1,2.5-.993,3.8,3.8,0,0,1,1.3.211,2.78,2.78,0,0,1,1.015.633,2.553,2.553,0,0,1,.413.519,3.119,3.119,0,0,1,.29.633l.053.176a1.8,1.8,0,0,1,.044.18l.035.185q.018.092.035.189t.026.2q.009.1.018.207t.013.211Q64.6-3.542,64.6-3.428Zm-4.509.105a1.115,1.115,0,0,0,.29.861,1.456,1.456,0,0,0,.984.264H62.5L62.49-3.375a1.854,1.854,0,0,0-.277-1.151,1.048,1.048,0,0,0-.883-.334,1.129,1.129,0,0,0-.923.352A1.83,1.83,0,0,0,60.091-3.322ZM72.932,0h-.185a3.472,3.472,0,0,1-2.725-1.02A4.284,4.284,0,0,1,66.9,0H65.575a.638.638,0,0,1-.584-.308,1.419,1.419,0,0,1-.189-.756v-.1a1.339,1.339,0,0,1,.167-.721.672.672,0,0,1,.606-.316h1.371a2.508,2.508,0,0,0,1.49-.343A1.248,1.248,0,0,0,68.889-3.6V-6.179h2.162V-3.6a1.339,1.339,0,0,0,.391,1.068,1.976,1.976,0,0,0,1.3.338h.193a.461.461,0,0,1,.3.092.461.461,0,0,1,.154.268,2.09,2.09,0,0,1,.048.294q.009.119.009.321v.374q0,.048,0,.141a1.487,1.487,0,0,1-.013.149q-.009.057-.026.141a.78.78,0,0,1-.04.136.6.6,0,0,1-.062.11.38.38,0,0,1-.088.092.407.407,0,0,1-.119.057A.529.529,0,0,1,72.932,0ZM67.975-9.853l.8-.8q.413-.413.773-.044l.861.853a.507.507,0,0,1-.026.8l-.8.8a.5.5,0,0,1-.782.009L67.948-9.1A.483.483,0,0,1,67.975-9.853ZM72.844,0a.638.638,0,0,1-.584-.308,1.419,1.419,0,0,1-.189-.756v-.1a1.339,1.339,0,0,1,.167-.721.672.672,0,0,1,.606-.316h1.8a3.167,3.167,0,0,1-.765-2.074,3.769,3.769,0,0,1,1.055-2.707,3.666,3.666,0,0,1,2.733-1.072,3.88,3.88,0,0,1,1.683.36,3.893,3.893,0,0,1,1.34,1.063l.132.158-.105.185-.633,1.169-.193.352-.29-.281a2.647,2.647,0,0,0-1.89-.773,2.222,2.222,0,0,0-.435.04,1.519,1.519,0,0,0-.369.123,1.614,1.614,0,0,0-.316.2,1.568,1.568,0,0,0-.268.286,1.44,1.44,0,0,0-.29.888,1.624,1.624,0,0,0,.712,1.266q.237.185.439.312a1.735,1.735,0,0,0,.343.176,1.049,1.049,0,0,0,.237.057,5.991,5.991,0,0,0,1.1-.193l1.863-.448.378-.088V-.993l-.22.062A19.6,19.6,0,0,1,75.393,0Z" transform="translate(722 920)" fill="#fff"/>
    <g id="Group_5953" data-name="Group 5953" transform="translate(686 903)">
      <rect id="Rectangle_2465" data-name="Rectangle 2465" width="24" height="24" fill="none"/>
      <g id="search" transform="translate(2 2)">
        <circle id="Ellipse_166" data-name="Ellipse 166" cx="8" cy="8" r="8" fill="none" stroke="#fff" stroke-linecap="round" stroke-linejoin="round" stroke-width="1.5"/>
        <line id="Line_112" data-name="Line 112" x1="5" y1="5" transform="translate(15 15)" fill="none" stroke="#fff" stroke-linecap="round" stroke-linejoin="round" stroke-width="1.5"/>
      </g>
    </g>
    <path id="Path_5571" data-name="Path 5571" d="M7.383-3.8a4.929,4.929,0,0,1-.407,2.068A3.108,3.108,0,0,1,5.813-.363a3.184,3.184,0,0,1-1.746.48A3.031,3.031,0,0,1,1.652-.952a4.275,4.275,0,0,1-.92-2.886v-.879a4.9,4.9,0,0,1,.413-2.065A3.155,3.155,0,0,1,2.314-8.165a3.159,3.159,0,0,1,1.74-.483,3.188,3.188,0,0,1,1.737.475A3.118,3.118,0,0,1,6.955-6.832a4.829,4.829,0,0,1,.428,2.01Zm-.721-.926a3.77,3.77,0,0,0-.7-2.414,2.312,2.312,0,0,0-1.91-.873,2.309,2.309,0,0,0-1.9.876,3.8,3.8,0,0,0-.706,2.446V-3.8a3.77,3.77,0,0,0,.7,2.405,2.307,2.307,0,0,0,1.91.888,2.289,2.289,0,0,0,1.91-.876,3.871,3.871,0,0,0,.686-2.44ZM13.113-.8a2.279,2.279,0,0,1-2.021.92A1.961,1.961,0,0,1,9.551-.472a2.579,2.579,0,0,1-.539-1.743V-6.34h.7V-2.3q0,1.811,1.465,1.811A1.8,1.8,0,0,0,13.1-1.752V-6.34h.7V0h-.68Zm3.6-7.16V-6.34h1.313v.574H16.717v4.225a1.321,1.321,0,0,0,.19.785.738.738,0,0,0,.636.258,4.362,4.362,0,0,0,.568-.059l.029.574a2.272,2.272,0,0,1-.75.1A1.251,1.251,0,0,1,16.342-.3a1.972,1.972,0,0,1-.328-1.233v-4.23H14.848V-6.34h1.166V-7.963ZM20.268,0h-.7V-9h.7Zm2.689,0h-.7V-6.34h.7Zm-.826-8.174a.475.475,0,0,1,.129-.337.458.458,0,0,1,.352-.138.468.468,0,0,1,.354.138.469.469,0,0,1,.132.337.459.459,0,0,1-.132.334.473.473,0,0,1-.354.135.463.463,0,0,1-.352-.135A.464.464,0,0,1,22.131-8.174Zm3.4,1.834.023,1.084a2.517,2.517,0,0,1,.891-.894,2.315,2.315,0,0,1,1.178-.308,1.9,1.9,0,0,1,1.518.574,2.59,2.59,0,0,1,.5,1.723V0h-.7V-4.166a1.937,1.937,0,0,0-.36-1.266,1.412,1.412,0,0,0-1.134-.416A1.774,1.774,0,0,0,26.3-5.44a2.386,2.386,0,0,0-.741,1.1V0h-.7V-6.34ZM33.908.117a2.752,2.752,0,0,1-1.462-.4,2.715,2.715,0,0,1-1.017-1.11,3.462,3.462,0,0,1-.363-1.6V-3.24a3.731,3.731,0,0,1,.354-1.646,2.82,2.82,0,0,1,.987-1.151,2.436,2.436,0,0,1,1.371-.419,2.289,2.289,0,0,1,1.831.788,3.2,3.2,0,0,1,.677,2.153v.393H31.764v.135a2.655,2.655,0,0,0,.618,1.8,1.967,1.967,0,0,0,1.556.718,2.285,2.285,0,0,0,.993-.205,2.2,2.2,0,0,0,.782-.656L36.152-1A2.558,2.558,0,0,1,33.908.117Zm-.129-5.977a1.753,1.753,0,0,0-1.333.58,2.68,2.68,0,0,0-.659,1.559h3.8V-3.8a2.327,2.327,0,0,0-.521-1.488A1.616,1.616,0,0,0,33.779-5.859Zm3.592,2.631a3.821,3.821,0,0,1,.659-2.353,2.122,2.122,0,0,1,1.79-.876,2.2,2.2,0,0,1,1.957,1.014V-9h.7V0h-.656l-.029-.844a2.264,2.264,0,0,1-1.98.961,2.114,2.114,0,0,1-1.767-.882,3.841,3.841,0,0,1-.671-2.382Zm.709.123a3.306,3.306,0,0,0,.486,1.913,1.573,1.573,0,0,0,1.371.7,1.887,1.887,0,0,0,1.84-1.143V-4.611a1.873,1.873,0,0,0-1.828-1.236,1.592,1.592,0,0,0-1.377.694A3.533,3.533,0,0,0,38.08-3.105Zm11.936-1.23h2.6v.656h-2.6V-.855h-.709V-3.68H46.764v-.656h2.543v-2.73h.709ZM57.715,0h-.7V-6.34h.7Zm-.826-8.174a.475.475,0,0,1,.129-.337.458.458,0,0,1,.352-.138.468.468,0,0,1,.354.138.469.469,0,0,1,.132.337.459.459,0,0,1-.132.334.473.473,0,0,1-.354.135.463.463,0,0,1-.352-.135A.464.464,0,0,1,56.889-8.174Zm5.074,7.7A1.851,1.851,0,0,0,63.19-.888a1.454,1.454,0,0,0,.536-1.069H64.4A1.985,1.985,0,0,1,64.037-.9a2.276,2.276,0,0,1-.888.747,2.675,2.675,0,0,1-1.187.27A2.449,2.449,0,0,1,59.985-.75a3.506,3.506,0,0,1-.729-2.332v-.211a3.963,3.963,0,0,1,.328-1.658,2.529,2.529,0,0,1,.94-1.113,2.6,2.6,0,0,1,1.433-.393,2.445,2.445,0,0,1,1.72.621A2.265,2.265,0,0,1,64.4-4.2h-.674a1.724,1.724,0,0,0-.536-1.2,1.736,1.736,0,0,0-1.233-.457,1.748,1.748,0,0,0-1.474.686,3.1,3.1,0,0,0-.524,1.922v.205a3.033,3.033,0,0,0,.524,1.893A1.76,1.76,0,0,0,61.963-.475Zm3.451-2.789a3.731,3.731,0,0,1,.354-1.646,2.7,2.7,0,0,1,1-1.14,2.7,2.7,0,0,1,1.468-.407,2.608,2.608,0,0,1,2.051.888,3.421,3.421,0,0,1,.785,2.353v.146a3.763,3.763,0,0,1-.354,1.655,2.647,2.647,0,0,1-1,1.134,2.739,2.739,0,0,1-1.471.4A2.61,2.61,0,0,1,66.2-.771a3.413,3.413,0,0,1-.788-2.353Zm.7.193A2.877,2.877,0,0,0,66.706-1.2a1.889,1.889,0,0,0,1.544.729A1.883,1.883,0,0,0,69.788-1.2a2.971,2.971,0,0,0,.589-1.925v-.135a3.225,3.225,0,0,0-.27-1.33,2.166,2.166,0,0,0-.756-.935,1.931,1.931,0,0,0-1.113-.331,1.873,1.873,0,0,0-1.529.735A2.976,2.976,0,0,0,66.117-3.2Zm7.072-3.27.023,1.084a2.517,2.517,0,0,1,.891-.894,2.315,2.315,0,0,1,1.178-.308,1.9,1.9,0,0,1,1.518.574,2.59,2.59,0,0,1,.5,1.723V0h-.7V-4.166a1.937,1.937,0,0,0-.36-1.266,1.412,1.412,0,0,0-1.134-.416,1.774,1.774,0,0,0-1.151.407,2.386,2.386,0,0,0-.741,1.1V0h-.7V-6.34Z" transform="translate(578 997)" fill="#1a1a1a"/>
    <path id="Path_5570" data-name="Path 5570" d="M-76.67-4l.533-.533q.17-.17.3-.035l.574.574q.152.152-.018.322l-.533.533a.194.194,0,0,1-.311.006l-.574-.574Q-76.828-3.844-76.67-4Zm4.248,3.7a2.808,2.808,0,0,1-.85,2.15,2.392,2.392,0,0,1-.46.308,3.185,3.185,0,0,1-.562.223,4.127,4.127,0,0,1-.665.135,6.3,6.3,0,0,1-.768.044h-.322a3.613,3.613,0,0,1-2.537-.779,3.094,3.094,0,0,1-.838-2.367V-2.5h.861V-.6A2.16,2.16,0,0,0-77.924,1.1a2.739,2.739,0,0,0,1.887.574h.3a3.083,3.083,0,0,0,1.887-.486A1.715,1.715,0,0,0-73.207-.27v-3.34h.855Zm5.256-1.775V-.967h.99a.3.3,0,0,1,.035.135,1.867,1.867,0,0,1,.018.264V-.5a1.6,1.6,0,0,1-.029.357q-.018.059-.029.059h-.979v.1q-.047,2.6-3.246,2.6h-.346V1.734h.311q2.449.006,2.455-1.723v-.1h-1.037a2.017,2.017,0,0,1-1.471-.475A1.933,1.933,0,0,1-70.975-2,2.357,2.357,0,0,1-70.482-3.6a1.865,1.865,0,0,1,1.453-.562,1.822,1.822,0,0,1,1.33.48,1.532,1.532,0,0,1,.393.65A3.115,3.115,0,0,1-67.166-2.08Zm-3.006.07a1,1,0,0,0,.293.776,1.221,1.221,0,0,0,.85.267h1.049v-.1l-.006-.979A1.485,1.485,0,0,0-68.256-3a.953.953,0,0,0-.8-.325,1.043,1.043,0,0,0-.844.34A1.506,1.506,0,0,0-70.172-2.01Zm8.807.105a2.2,2.2,0,0,0,1.418.938h.141a.885.885,0,0,1,.053.4V-.5a1.856,1.856,0,0,1-.018.281.4.4,0,0,1-.035.135h-.082a2.139,2.139,0,0,1-.548-.07,2.172,2.172,0,0,1-.516-.211,2.436,2.436,0,0,1-.478-.357,3.763,3.763,0,0,1-.439-.5l-.012-.018-.1-.141-.053.164-.012.023q-.369,1.113-2.268,1.113h-1.91a.182.182,0,0,1-.167-.094A.673.673,0,0,1-66.445-.5V-.568a.58.58,0,0,1,.064-.316.176.176,0,0,1,.158-.082H-64.3q1.547,0,1.553-.873a2.247,2.247,0,0,0-.68-1.131L-65.3-5.109a1.054,1.054,0,0,1-.252-.738.827.827,0,0,1,.621-.844l3.545-1.166v.873l-3.27,1.066-.018.006-.129.041.088.1.012.012Zm3.615,3.721.533-.533q.158-.158.281-.035l.574.574q.141.141-.018.3l-.533.533a.18.18,0,0,1-.287.006l-.574-.574a.156.156,0,0,1-.053-.126A.253.253,0,0,1-57.75,1.816Zm-2.033,0,.533-.533q.158-.158.281-.035l.574.574q.141.141-.018.3l-.533.533a.18.18,0,0,1-.287.006l-.574-.574Q-59.924,1.963-59.783,1.816Zm-.076-1.9a.186.186,0,0,1-.164-.088A.681.681,0,0,1-60.082-.5V-.568a1.063,1.063,0,0,1,.015-.19.3.3,0,0,1,.044-.12.178.178,0,0,1,.164-.088h1.365q1.271,0,1.271-1.219V-3.82h.844v1.635a1.859,1.859,0,0,1-2.109,2.1Zm5.508-6.5h.8V-.1h-.8Zm-.246-2h2.15l.006.75h-2.1a1.134,1.134,0,0,0-.967.428l-.023.023-.457-.527.012-.018a1.371,1.371,0,0,1,.56-.492A1.878,1.878,0,0,1-54.6-8.59Zm9.17,4.1h2.379v.85h-2.379v2.7h-.914v-2.7h-2.379v-.85h2.379v-2.49h.914Zm15.58,4.4h-.211a1.771,1.771,0,0,1-1.412-.533l-.018-.029V-.3a2.689,2.689,0,0,1-.82,2.15,3.705,3.705,0,0,1-2.484.709h-.322q-2.848,0-3.293-2.232a4.619,4.619,0,0,1-.082-.914V-2.5h.861V-.6A2.16,2.16,0,0,0-36.99,1.1,2.739,2.739,0,0,0-35.1,1.67h.3a3.083,3.083,0,0,0,1.887-.486A1.715,1.715,0,0,0-32.273-.27v-3.34h.855v1.166a1.538,1.538,0,0,0,.357,1.1,1.4,1.4,0,0,0,1.055.375h.164a.431.431,0,0,1,.018.047.136.136,0,0,0,0,.026.271.271,0,0,0,.009.032.218.218,0,0,1,.009.038.311.311,0,0,1,0,.044.572.572,0,0,1,.009.064q0,.035,0,.07V-.5A.861.861,0,0,1-29.848-.088Zm-5.919-3.7.57-.57q.182-.182.326-.038l.614.614q.163.163-.019.345l-.57.57a.208.208,0,0,1-.332.006l-.614-.614Q-35.936-3.617-35.767-3.786Zm7.988,5.6.533-.533q.158-.158.281-.035l.574.574q.141.141-.018.3l-.533.533a.18.18,0,0,1-.287.006l-.574-.574a.156.156,0,0,1-.053-.126A.253.253,0,0,1-27.779,1.816Zm-2.033,0,.533-.533q.158-.158.281-.035l.574.574q.141.141-.018.3l-.533.533a.18.18,0,0,1-.287.006l-.574-.574Q-29.953,1.963-29.812,1.816Zm-.076-1.9a.186.186,0,0,1-.164-.088A.681.681,0,0,1-30.111-.5V-.568a1.063,1.063,0,0,1,.015-.19.3.3,0,0,1,.044-.12.178.178,0,0,1,.164-.088h1.365q1.271,0,1.271-1.219V-3.82h.844v1.635a1.859,1.859,0,0,1-2.109,2.1Zm5.244-7.354h.8v5.707h-.8ZM-19.881-2.3a2.3,2.3,0,0,1-.53,1.664,2.168,2.168,0,0,1-1.62.545H-24.65V-.967h2.66a1.248,1.248,0,0,0,.976-.366A1.544,1.544,0,0,0-20.684-2.4V-7.729h.8Zm4,1.33h4.9a1.522,1.522,0,0,0,1.157-.416,1.7,1.7,0,0,0,.4-1.213V-3.662h.844v1.049a2.642,2.642,0,0,1-.6,1.9,2.444,2.444,0,0,1-1.834.624H-15.9a2.467,2.467,0,0,1-1.84-.618,2.6,2.6,0,0,1-.6-1.884V-3.68h.85V-2.6a1.992,1.992,0,0,0,.182.9,1.207,1.207,0,0,0,.542.548A1.932,1.932,0,0,0-15.879-.967Zm2.754-4.412.533-.533q.158-.158.281-.035l.574.574q.141.141-.018.3l-.533.533a.18.18,0,0,1-.287.006l-.574-.574a.156.156,0,0,1-.053-.126A.253.253,0,0,1-13.125-5.379Zm-2.033,0,.533-.533q.158-.158.281-.035l.574.574q.141.141-.018.3l-.533.533a.18.18,0,0,1-.287.006l-.574-.574Q-15.3-5.232-15.158-5.379ZM-4.207-.088H-5.244A2.025,2.025,0,0,1-6.715-.56,2,2,0,0,1-7.2-2.039,2.031,2.031,0,0,1-6.486-3.8a2.074,2.074,0,0,1,1.207-.357,1.922,1.922,0,0,1,1.354.486A2.07,2.07,0,0,1-3.387-2.08V.012q0,2.6-3.24,2.6h-.346V1.734h.311Q-4.213,1.74-4.207.012ZM-6.393-1.969a.935.935,0,0,0,.293.732,1.23,1.23,0,0,0,.85.264H-4.2l-.006-1.072q0-1.289-1.066-1.283Q-6.393-3.328-6.393-1.969Zm4.67-5.76h.8V-.094h-.8Z" transform="translate(913 995)" fill="#1a1a1a"/>
    <g id="bg-2" data-name="bg" transform="translate(578 1012)" fill="#fff" stroke="#585858" stroke-width="1">
      <rect width="335" height="48" rx="15" stroke="none"/>
      <rect x="0.5" y="0.5" width="334" height="47" rx="14.5" fill="none"/>
    </g>
    <path id="Path_5569" data-name="Path 5569" d="M9.571,0h-.4Q6.917,0,6.258-1.521a15.313,15.313,0,0,1-1.837.132,5.174,5.174,0,0,1-2.874-.659,2.35,2.35,0,0,1-1.028-2.1,2.976,2.976,0,0,1,.519-1.74A3.753,3.753,0,0,1,2.514-7.128a8.855,8.855,0,0,1,2.373-.738l-.053-.255-.062-.308.3-.053,1.485-.281.308-.062.053.308.861,4.922a1.826,1.826,0,0,0,.492,1.063,1.385,1.385,0,0,0,.993.334h.308a.412.412,0,0,1,.29.114.554.554,0,0,1,.167.264,1.168,1.168,0,0,1,.062.281q.009.123.009.36v.316q0,.053-.013.229a.841.841,0,0,1-.044.246q-.031.07-.088.185A.324.324,0,0,1,9.8-.044.548.548,0,0,1,9.571,0ZM5.7-3.639,5.317-5.73a8.262,8.262,0,0,0-1.274.272,3.446,3.446,0,0,0-.844.352,1.581,1.581,0,0,0-.457.4.754.754,0,0,0-.141.439q0,.7,1.705.721.246,0,.488-.013t.47-.031Q5.493-3.6,5.7-3.639ZM18.791,0h-.246a2.579,2.579,0,0,1-1.863-.571A3.241,3.241,0,0,1,14.4.123a3.461,3.461,0,0,1-2.382-.694,1.5,1.5,0,0,1-.3.215,2.749,2.749,0,0,1-.352.163,2.3,2.3,0,0,1-.4.11q-.211.04-.439.062T10.037,0H9.492a.638.638,0,0,1-.584-.308,1.419,1.419,0,0,1-.189-.756v-.1a1.339,1.339,0,0,1,.167-.721A.672.672,0,0,1,9.492-2.2h.527q.993,0,.993-.4a7.986,7.986,0,0,1,.352-2.821,2.885,2.885,0,0,1,1.143-1.411A3.408,3.408,0,0,1,14.353-7.3a3.4,3.4,0,0,1,1.92.505,2.675,2.675,0,0,1,1.068,1.49A12.01,12.01,0,0,1,17.6-2.654a.4.4,0,0,0,.193.338,1.427,1.427,0,0,0,.7.119h.3a.461.461,0,0,1,.3.092.461.461,0,0,1,.154.268,2.09,2.09,0,0,1,.048.294q.009.119.009.321v.413q0,.062-.009.18a1.287,1.287,0,0,1-.026.193,1.029,1.029,0,0,1-.057.167.458.458,0,0,1-.092.145.421.421,0,0,1-.136.088A.483.483,0,0,1,18.791,0Zm-4.4-5.124a1.117,1.117,0,0,0-.918.36,1.905,1.905,0,0,0-.286,1.213,3.241,3.241,0,0,0,.022.391,2.3,2.3,0,0,0,.062.325,1.408,1.408,0,0,0,.1.259.905.905,0,0,0,.136.2,1.069,1.069,0,0,0,.158.145.956.956,0,0,0,.2.114,1.081,1.081,0,0,0,.255.07,2,2,0,0,0,.308.022.968.968,0,0,0,.822-.352,2.06,2.06,0,0,0,.268-1.213,4.172,4.172,0,0,0-.022-.448,1.964,1.964,0,0,0-.07-.36,1.27,1.27,0,0,0-.119-.277,1.04,1.04,0,0,0-.158-.207.679.679,0,0,0-.207-.141,1.189,1.189,0,0,0-.25-.079A1.532,1.532,0,0,0,14.388-5.124ZM18.7,0a.638.638,0,0,1-.584-.308,1.419,1.419,0,0,1-.189-.756v-.1a1.339,1.339,0,0,1,.167-.721A.685.685,0,0,1,18.7-2.2h2.883a3.317,3.317,0,0,0,1.455-.229.724.724,0,0,0,.435-.642.5.5,0,0,0-.053-.18q-.053-.119-.154-.294a4,4,0,0,0-.286-.417Q22.8-4.2,22.57-4.474L19.749-7.682a2.025,2.025,0,0,1-.483-1.406,1.883,1.883,0,0,1,.083-.571,1.578,1.578,0,0,1,.242-.475,1.659,1.659,0,0,1,.387-.369,2.036,2.036,0,0,1,.519-.255l5.493-1.811.4-.132v2.232l-.22.07L21.6-8.9l2.408,2.786a5.153,5.153,0,0,1,1.538,3.1A2.58,2.58,0,0,1,24.535-.76,4.945,4.945,0,0,1,21.568,0ZM30.92,0H27.413V-2.2h3.516q2,0,2-.809a.9.9,0,0,0-.083-.338,3.275,3.275,0,0,0-.272-.488,5.18,5.18,0,0,0-.47-.606L29.7-7.225l-.176-.2.185-.2,1.063-1.187L31-9.079l.229.272,2.628,3.05A4.4,4.4,0,0,1,35.095-2.9,2.442,2.442,0,0,1,34.009-.725,5.543,5.543,0,0,1,30.92,0Zm14.7-6.513.8-.8q.413-.413.773-.044l.861.853a.507.507,0,0,1-.026.8l-.8.8a.5.5,0,0,1-.782.009L45.6-5.757A.483.483,0,0,1,45.624-6.513Zm6.97,5.757A5.269,5.269,0,0,1,51.93,1.85a3.877,3.877,0,0,1-1.819,1.586,7.184,7.184,0,0,1-2.914.527h-.483q-3.841,0-5.019-2.6A6.225,6.225,0,0,1,41.212-1.2V-4.5h2.171v3.3a2.856,2.856,0,0,0,.809,2.237,3.731,3.731,0,0,0,2.54.725h.448a4.247,4.247,0,0,0,2.553-.611,2.2,2.2,0,0,0,.8-1.868v-5.44h2.171l-.009.316Zm2.1-10.969h1.767V-.009H54.387V-11.725Zm9.905,8.3V-2.2h1.055a.461.461,0,0,1,.3.092.461.461,0,0,1,.154.268,2.09,2.09,0,0,1,.048.294q.009.119.009.321v.158a2.641,2.641,0,0,1-.062.65Q65.979,0,65.654,0H64.6a3.868,3.868,0,0,1-1.481,3.032A6.213,6.213,0,0,1,59.3,4.043h-.958V1.854h.905A4.588,4.588,0,0,0,61.6,1.393,1.759,1.759,0,0,0,62.473,0h-1.1a3.441,3.441,0,0,1-2.509-.848,3.272,3.272,0,0,1-.857-2.465,3.933,3.933,0,0,1,.853-2.681,3.18,3.18,0,0,1,2.5-.993,3.8,3.8,0,0,1,1.3.211,2.78,2.78,0,0,1,1.015.633,2.553,2.553,0,0,1,.413.519,3.119,3.119,0,0,1,.29.633l.053.176a1.8,1.8,0,0,1,.044.18l.035.185q.018.092.035.189t.026.2q.009.1.018.207t.013.211Q64.6-3.542,64.6-3.428Zm-4.509.105a1.115,1.115,0,0,0,.29.861,1.456,1.456,0,0,0,.984.264H62.5L62.49-3.375a1.854,1.854,0,0,0-.277-1.151,1.048,1.048,0,0,0-.883-.334,1.129,1.129,0,0,0-.923.352A1.83,1.83,0,0,0,60.091-3.322ZM72.932,0h-.185a3.472,3.472,0,0,1-2.725-1.02A4.284,4.284,0,0,1,66.9,0H65.575a.638.638,0,0,1-.584-.308,1.419,1.419,0,0,1-.189-.756v-.1a1.339,1.339,0,0,1,.167-.721.672.672,0,0,1,.606-.316h1.371a2.508,2.508,0,0,0,1.49-.343A1.248,1.248,0,0,0,68.889-3.6V-6.179h2.162V-3.6a1.339,1.339,0,0,0,.391,1.068,1.976,1.976,0,0,0,1.3.338h.193a.461.461,0,0,1,.3.092.461.461,0,0,1,.154.268,2.09,2.09,0,0,1,.048.294q.009.119.009.321v.374q0,.048,0,.141a1.487,1.487,0,0,1-.013.149q-.009.057-.026.141a.78.78,0,0,1-.04.136.6.6,0,0,1-.062.11.38.38,0,0,1-.088.092.407.407,0,0,1-.119.057A.529.529,0,0,1,72.932,0ZM67.975-9.853l.8-.8q.413-.413.773-.044l.861.853a.507.507,0,0,1-.026.8l-.8.8a.5.5,0,0,1-.782.009L67.948-9.1A.483.483,0,0,1,67.975-9.853ZM72.844,0a.638.638,0,0,1-.584-.308,1.419,1.419,0,0,1-.189-.756v-.1a1.339,1.339,0,0,1,.167-.721.672.672,0,0,1,.606-.316h1.8a3.167,3.167,0,0,1-.765-2.074,3.769,3.769,0,0,1,1.055-2.707,3.666,3.666,0,0,1,2.733-1.072,3.88,3.88,0,0,1,1.683.36,3.893,3.893,0,0,1,1.34,1.063l.132.158-.105.185-.633,1.169-.193.352-.29-.281a2.647,2.647,0,0,0-1.89-.773,2.222,2.222,0,0,0-.435.04,1.519,1.519,0,0,0-.369.123,1.614,1.614,0,0,0-.316.2,1.568,1.568,0,0,0-.268.286,1.44,1.44,0,0,0-.29.888,1.624,1.624,0,0,0,.712,1.266q.237.185.439.312a1.735,1.735,0,0,0,.343.176,1.049,1.049,0,0,0,.237.057,5.991,5.991,0,0,0,1.1-.193l1.863-.448.378-.088V-.993l-.22.062A19.6,19.6,0,0,1,75.393,0Z" transform="translate(722 1041)" fill="#585858"/>
    <g id="Group_5953-2" data-name="Group 5953" transform="translate(686 1025)">
      <rect id="Rectangle_2465-2" data-name="Rectangle 2465" width="24" height="24" fill="none"/>
      <g id="search-2" data-name="search" transform="translate(2 2)">
        <circle id="Ellipse_166-2" data-name="Ellipse 166" cx="8" cy="8" r="8" fill="none" stroke="#585858" stroke-linecap="round" stroke-linejoin="round" stroke-width="1.5"/>
        <line id="Line_112-2" data-name="Line 112" x1="5" y1="5" transform="translate(15 15)" fill="none" stroke="#585858" stroke-linecap="round" stroke-linejoin="round" stroke-width="1.5"/>
      </g>
    </g>
  </g>
</svg>
